<?xml version="1.0" encoding="UTF-8"?>
<svg width="20px" height="16px" viewBox="0 0 20 16" version="1.1" xmlns="http://www.w3.org/2000/svg" xmlns:xlink="http://www.w3.org/1999/xlink">
    <!-- Generator: sketchtool 61.2 (101010) - https://sketch.com -->
    <title>1F2C6962-8D34-409B-A5B2-4915F975A14A</title>
    <desc>Created with sketchtool.</desc>
    <g id="New-flyhub" stroke="none" stroke-width="1" fill="none" fill-rule="evenodd">
        <g id="01.-Flyhub-Website-V1.0" transform="translate(-261.000000, -4764.000000)">
            <g id="09-Footer" transform="translate(258.000000, 4595.000000)">
                <g id="06-Footer" transform="translate(1.000000, 0.000000)">
                    <g id="Group-8-Copy-3">
                        <g id="Group-12" transform="translate(0.000000, 63.000000)">
                            <g id="Group-16" transform="translate(0.000000, 62.000000)">
                                <g id="Group-10-Copy" transform="translate(0.000000, 40.000000)">
                                    <g id="IC-Email-24px">
                                        <polygon id="Path" points="0 0 24 0 24 24 0 24"></polygon>
                                        <path d="M20,4 L4,4 C2.9,4 2.01,4.9 2.01,6 L2,18 C2,19.1 2.9,20 4,20 L20,20 C21.1,20 22,19.1 22,18 L22,6 C22,4.9 21.1,4 20,4 Z M20,8 L12,13 L4,8 L4,6 L12,11 L20,6 L20,8 Z" id="Shape" fill="#0077d7" fill-rule="nonzero"></path>
                                    </g>
                                </g>
                            </g>
                        </g>
                    </g>
                </g>
            </g>
        </g>
    </g>
</svg>