<svg xmlns="http://www.w3.org/2000/svg" xmlns:xlink="http://www.w3.org/1999/xlink" viewBox="0 0 368 285"><defs><linearGradient id="a" x1="133.99" y1="257.71" x2="220.5" y2="257.71" gradientTransform="matrix(1, 0, 0, -1, 0, 290)" gradientUnits="userSpaceOnUse"><stop offset="0" stop-color="#f7b3a4"></stop><stop offset="0.28" stop-color="#c1766a"></stop><stop offset="0.46" stop-color="#96605f"></stop><stop offset="0.56" stop-color="#fbefec"></stop><stop offset="0.86" stop-color="#000000"></stop><stop offset="1" stop-color="#dea599"></stop></linearGradient><linearGradient id="b" x1="133.99" y1="237.39" x2="220.5" y2="237.39" xlink:href="#a"></linearGradient><linearGradient id="c" x1="133.99" y1="237.42" x2="220.5" y2="237.42" xlink:href="#a"></linearGradient><linearGradient id="d" x1="133.99" y1="247.04" x2="220.5" y2="247.04" xlink:href="#a"></linearGradient><linearGradient id="e" x1="133.99" y1="247.11" x2="220.5" y2="247.11" xlink:href="#a"></linearGradient><linearGradient id="f" x1="133.99" y1="260.13" x2="220.5" y2="260.13" xlink:href="#a"></linearGradient><linearGradient id="g" x1="133.99" y1="260.23" x2="220.5" y2="260.23" xlink:href="#a"></linearGradient><linearGradient id="h" x1="133.99" y1="231.2" x2="220.5" y2="231.2" xlink:href="#a"></linearGradient><linearGradient id="i" x1="133.99" y1="231.21" x2="220.5" y2="231.21" xlink:href="#a"></linearGradient><linearGradient id="j" x1="133.99" y1="260.44" x2="220.5" y2="260.44" xlink:href="#a"></linearGradient><linearGradient id="k" x1="133.99" y1="260.45" x2="220.5" y2="260.45" xlink:href="#a"></linearGradient><linearGradient id="l" x1="133.99" y1="272.42" x2="220.5" y2="272.42" xlink:href="#a"></linearGradient><linearGradient id="m" x1="133.99" y1="272.46" x2="220.5" y2="272.46" xlink:href="#a"></linearGradient><linearGradient id="n" x1="133.99" y1="247.41" x2="220.5" y2="247.41" xlink:href="#a"></linearGradient><linearGradient id="o" x1="133.99" y1="247.54" x2="220.5" y2="247.54" xlink:href="#a"></linearGradient><linearGradient id="p" x1="132.61" y1="257.71" x2="227.76" y2="257.71" xlink:href="#a"></linearGradient><linearGradient id="q" x1="132.61" y1="237.39" x2="227.76" y2="237.39" xlink:href="#a"></linearGradient><linearGradient id="r" x1="132.61" y1="237.42" x2="227.76" y2="237.42" xlink:href="#a"></linearGradient><linearGradient id="s" x1="132.61" y1="247.04" x2="227.76" y2="247.04" xlink:href="#a"></linearGradient><linearGradient id="t" x1="132.61" y1="247.11" x2="227.76" y2="247.11" xlink:href="#a"></linearGradient><linearGradient id="u" x1="132.61" y1="260.13" x2="227.76" y2="260.13" xlink:href="#a"></linearGradient><linearGradient id="v" x1="132.61" y1="260.23" x2="227.76" y2="260.23" xlink:href="#a"></linearGradient><linearGradient id="w" x1="132.62" y1="231.2" x2="227.77" y2="231.2" xlink:href="#a"></linearGradient><linearGradient id="x" x1="132.61" y1="231.21" x2="227.76" y2="231.21" xlink:href="#a"></linearGradient><linearGradient id="y" x1="132.61" y1="260.44" x2="227.76" y2="260.44" xlink:href="#a"></linearGradient><linearGradient id="z" x1="132.61" y1="260.45" x2="227.76" y2="260.45" xlink:href="#a"></linearGradient><linearGradient id="aa" x1="132.61" y1="272.42" x2="227.76" y2="272.42" xlink:href="#a"></linearGradient><linearGradient id="ab" x1="132.61" y1="272.46" x2="227.76" y2="272.46" xlink:href="#a"></linearGradient><linearGradient id="ac" x1="132.61" y1="247.41" x2="227.76" y2="247.41" xlink:href="#a"></linearGradient><linearGradient id="ad" x1="132.61" y1="247.54" x2="227.76" y2="247.54" xlink:href="#a"></linearGradient><linearGradient id="ae" x1="138.94" y1="104.16" x2="243.13" y2="104.16" xlink:href="#a"></linearGradient></defs><path d="M179.83,57.46c-1-2.18-2.37-4.69-3.15-6.78-3.63-9.7-4.11-19.44-.66-29.28,1.4-4,2.29-8.14,3.42-12.21a8.06,8.06,0,0,1,.6-2.07c2,7.68,4.69,16.14,6,23.89,1.16,7.09-.26,14-3.08,20.72A45.6,45.6,0,0,1,179.83,57.46Z" style="fill:url(#a)"></path><path d="M227.76,47c-5.1,2.62-10.79,5.71-16.09,8a44.85,44.85,0,0,1-19.31,3.62c-3.22-.07-8.69-.54-11-1.45,1.16-.88,2.11-1.68,3.15-2.37a46.71,46.71,0,0,1,29.21-8.1C218.14,46.92,227.74,46.8,227.76,47Z" style="fill:url(#b)"></path><path d="M178.25,57.42c-1.89.3-3.76.7-5.67.87-10.5,1-20.28-.51-29.08-5.68-3.37-2-7-3.61-10.6-5.85,4.17,0,8.36.22,12.5,0a45.28,45.28,0,0,1,30.23,8.47A17.35,17.35,0,0,1,178.25,57.42Z" style="fill:url(#c)"></path><path d="M141,32.56l15.58,4.06a41.59,41.59,0,0,1,16.29,8.68,3.09,3.09,0,0,1,.92,1.17c.78,2.18,1.48,4.38,2.3,6.89a16.12,16.12,0,0,1-1.62-.74,50.16,50.16,0,0,0-19.12-6.87,5.86,5.86,0,0,1-3-1.45C148.43,40.4,144.69,36.42,141,32.56Z" style="fill:url(#d)"></path><path d="M219.09,32.47c-4.14,4.28-8,8.32-12,12.32a3.89,3.89,0,0,1-2.08.91,50,50,0,0,0-20,7.21,7.08,7.08,0,0,1-.87.39c.55-5.52,3.5-9.79,9.29-12.48a99.72,99.72,0,0,1,11-4.38c4.32-1.41,8.81-2.45,13.23-3.65C218,32.68,218.38,32.62,219.09,32.47Z" style="fill:url(#e)"></path><path d="M157.76,16.36l14.81,11.46V43.37c-2.12-1.57-4.74-2.88-6.23-4.78a30.6,30.6,0,0,1-4.55-8.44C160.16,25.64,159.09,21,157.76,16.36Z" style="fill:url(#f)"></path><path d="M187.4,27.82l15-11.56c-.16.62-.27,1.08-.41,1.54-1,3.33-1.91,6.69-3.05,10-.93,2.71-2.08,5.37-3.23,8-1.49,3.43-5.07,5.28-8.28,7.45Z" style="fill:url(#g)"></path><path d="M145.49,55.18c8.21,4,17,5.08,26.25,4.52-13.28,4.93-26.08,2.43-39.12-1.64Z" style="fill:url(#h)"></path><path d="M214.5,55.18l12.84,2.87c-13.08,4.09-25.84,6.58-39.72,1.53C197.5,60.26,206.36,59.15,214.5,55.18Z" style="fill:url(#i)"></path><path d="M214.24,21.71c-2.42,4.46-4.63,8.56-6.77,12.49l-10.79,3.2c1.26-2.87,2.55-5.79,3.94-9Z" style="fill:url(#j)"></path><path d="M159.3,28.41l4,9L152.51,34.2l-6.79-12.49Z" style="fill:url(#k)"></path><path d="M174.87,20.27c-.61,1.95-1.22,3.88-1.89,6l-7.38-5.45V8.89C165.79,8.87,172,16.43,174.87,20.27Z" style="fill:url(#l)"></path><path d="M194.26,20.91,187,26.27c-.66-2.17-1.25-4.1-1.85-6l8.7-11.42C194,8.83,194.26,16.68,194.26,20.91Z" style="fill:url(#m)"></path><path d="M151.18,45.32l-6.8.25-9-6,11.3.73C148,41.82,149.45,43.4,151.18,45.32Z" style="fill:url(#n)"></path><path d="M213.28,40.33l11.24-.76-8.58,5.78h-7.19Z" style="fill:url(#o)"></path><path d="M179.83,57.46c-1-2.18-2.37-4.69-3.15-6.78-3.63-9.7-4.11-19.44-.66-29.28,1.4-4,2.29-8.14,3.42-12.21a8.06,8.06,0,0,1,.6-2.07c2,7.68,4.69,16.14,6,23.89,1.16,7.09-.26,14-3.08,20.72A45.6,45.6,0,0,1,179.83,57.46Z" style="fill:url(#p)"></path><path d="M227.76,47c-5.1,2.62-10.79,5.71-16.09,8a44.85,44.85,0,0,1-19.31,3.62c-3.22-.07-8.69-.54-11-1.45,1.16-.88,2.11-1.68,3.15-2.37a46.71,46.71,0,0,1,29.21-8.1C218.14,46.92,227.74,46.8,227.76,47Z" style="fill:url(#q)"></path><path d="M178.25,57.42c-1.89.3-3.76.7-5.67.87-10.5,1-20.28-.51-29.08-5.68-3.37-2-7-3.61-10.6-5.85,4.17,0,8.36.22,12.5,0a45.28,45.28,0,0,1,30.23,8.47A17.35,17.35,0,0,1,178.25,57.42Z" style="fill:url(#r)"></path><path d="M141,32.56l15.58,4.06a41.59,41.59,0,0,1,16.29,8.68,3.09,3.09,0,0,1,.92,1.17c.78,2.18,1.48,4.38,2.3,6.89a16.12,16.12,0,0,1-1.62-.74,50.16,50.16,0,0,0-19.12-6.87,5.86,5.86,0,0,1-3-1.45C148.43,40.4,144.69,36.42,141,32.56Z" style="fill:url(#s)"></path><path d="M219.09,32.47c-4.14,4.28-8,8.32-12,12.32a3.89,3.89,0,0,1-2.08.91,50,50,0,0,0-20,7.21,7.08,7.08,0,0,1-.87.39c.55-5.52,3.5-9.79,9.29-12.48a99.72,99.72,0,0,1,11-4.38c4.32-1.41,8.81-2.45,13.23-3.65C218,32.68,218.38,32.62,219.09,32.47Z" style="fill:url(#t)"></path><path d="M157.76,16.36l14.81,11.46V43.37c-2.12-1.57-4.74-2.88-6.23-4.78a30.6,30.6,0,0,1-4.55-8.44C160.16,25.64,159.09,21,157.76,16.36Z" style="fill:url(#u)"></path><path d="M187.4,27.82l15-11.56c-.16.62-.27,1.08-.41,1.54-1,3.33-1.91,6.69-3.05,10-.93,2.71-2.08,5.37-3.23,8-1.49,3.43-5.07,5.28-8.28,7.45Z" style="fill:url(#v)"></path><path d="M145.49,55.18c8.21,4,17,5.08,26.25,4.52-13.28,4.93-26.08,2.43-39.12-1.64Z" style="fill:url(#w)"></path><path d="M214.5,55.18l12.84,2.87c-13.08,4.09-25.84,6.58-39.72,1.53C197.5,60.26,206.36,59.15,214.5,55.18Z" style="fill:url(#x)"></path><path d="M214.24,21.71c-2.42,4.46-4.63,8.56-6.77,12.49l-10.79,3.2c1.26-2.87,2.55-5.79,3.94-9Z" style="fill:url(#y)"></path><path d="M159.3,28.41l4,9L152.51,34.2l-6.79-12.49Z" style="fill:url(#z)"></path><path d="M174.87,20.27c-.61,1.95-1.22,3.88-1.89,6l-7.38-5.45V8.89C165.79,8.87,172,16.43,174.87,20.27Z" style="fill:url(#aa)"></path><path d="M194.26,20.91,187,26.27c-.66-2.17-1.25-4.1-1.85-6l8.7-11.42C194,8.83,194.26,16.68,194.26,20.91Z" style="fill:url(#ab)"></path><path d="M151.18,45.32l-6.8.25-9-6,11.3.73C148,41.82,149.45,43.4,151.18,45.32Z" style="fill:url(#ac)"></path><path d="M213.28,40.33l11.24-.76-8.58,5.78h-7.19Z" style="fill:url(#ad)"></path><path d="M179.83,57.46c-1-2.18-2.37-4.69-3.15-6.78-3.63-9.7-4.11-19.44-.66-29.28,1.4-4,2.29-8.14,3.42-12.21a8.06,8.06,0,0,1,.6-2.07c2,7.68,4.69,16.14,6,23.89,1.16,7.09-.26,14-3.08,20.72A45.6,45.6,0,0,1,179.83,57.46Z" style="fill:#efdbb2"></path><path d="M227.76,47c-5.1,2.62-10.79,5.71-16.09,8a44.85,44.85,0,0,1-19.31,3.62c-3.22-.07-8.69-.54-11-1.45,1.16-.88,2.11-1.68,3.15-2.37a46.71,46.71,0,0,1,29.21-8.1C218.14,46.92,227.74,46.8,227.76,47Z" style="fill:#efdbb2"></path><path d="M178.25,57.42c-1.89.3-3.76.7-5.67.87-10.5,1-20.28-.51-29.08-5.68-3.37-2-7-3.61-10.6-5.85,4.17,0,8.36.22,12.5,0a45.28,45.28,0,0,1,30.23,8.47A17.35,17.35,0,0,1,178.25,57.42Z" style="fill:#efdbb2"></path><path d="M141,32.56l15.58,4.06a41.59,41.59,0,0,1,16.29,8.68,3.09,3.09,0,0,1,.92,1.17c.78,2.18,1.48,4.38,2.3,6.89a16.12,16.12,0,0,1-1.62-.74,50.16,50.16,0,0,0-19.12-6.87,5.86,5.86,0,0,1-3-1.45C148.43,40.4,144.69,36.42,141,32.56Z" style="fill:#efdbb2"></path><path d="M219.09,32.47c-4.14,4.28-8,8.32-12,12.32a3.89,3.89,0,0,1-2.08.91,50,50,0,0,0-20,7.21,7.08,7.08,0,0,1-.87.39c.55-5.52,3.5-9.79,9.29-12.48a99.72,99.72,0,0,1,11-4.38c4.32-1.41,8.81-2.45,13.23-3.65C218,32.68,218.38,32.62,219.09,32.47Z" style="fill:#efdbb2"></path><path d="M157.76,16.36l14.81,11.46V43.37c-2.12-1.57-4.74-2.88-6.23-4.78a30.6,30.6,0,0,1-4.55-8.44C160.16,25.64,159.09,21,157.76,16.36Z" style="fill:#efdbb2"></path><path d="M187.4,27.82l15-11.56c-.16.62-.27,1.08-.41,1.54-1,3.33-1.91,6.69-3.05,10-.93,2.71-2.08,5.37-3.23,8-1.49,3.43-5.07,5.28-8.28,7.45Z" style="fill:#efdbb2"></path><path d="M145.49,55.18c8.21,4,17,5.08,26.25,4.52-13.28,4.93-26.08,2.43-39.12-1.64Z" style="fill:#efdbb2"></path><path d="M214.5,55.18l12.84,2.87c-13.08,4.09-25.84,6.58-39.72,1.53C197.5,60.26,206.36,59.15,214.5,55.18Z" style="fill:#efdbb2"></path><path d="M214.24,21.71c-2.42,4.46-4.63,8.56-6.77,12.49l-10.79,3.2c1.26-2.87,2.55-5.79,3.94-9Z" style="fill:#efdbb2"></path><path d="M159.3,28.41l4,9L152.51,34.2l-6.79-12.49Z" style="fill:#efdbb2"></path><path d="M174.87,20.27c-.61,1.95-1.22,3.88-1.89,6l-7.38-5.45V8.89C165.79,8.87,172,16.43,174.87,20.27Z" style="fill:#efdbb2"></path><path d="M194.26,20.91,187,26.27c-.66-2.17-1.25-4.1-1.85-6l8.7-11.42C194,8.83,194.26,16.68,194.26,20.91Z" style="fill:#efdbb2"></path><path d="M151.18,45.32l-6.8.25-9-6,11.3.73C148,41.82,149.45,43.4,151.18,45.32Z" style="fill:#efdbb2"></path><path d="M213.28,40.33l11.24-.76-8.58,5.78h-7.19Z" style="fill:#efdbb2"></path><path d="M87.17,266.35h-8v3.41L6.65,271.62,6.34,258.3H7.58L7.27,249l9.29-.62v-1.86l-6.19-2.17,1.86-161L20.9,83l.31-14.25,8.36-.31.93,9.29h.62l.31-12.08H41L37.31,247.14,85,244l.31,8.67,1.55.31v3.72l-8.36.31,8.36,1.86.31,7.44M64.56,212.47H58.68v-126l8.05-1.55,4.34,8.67V87.36l9.6-.31,4.65,128.83L76,216.5l-.93-7.74v11.46H64.57v-7.75" style="fill:#fff"></path><path d="M172.33,164.16V268.83L105.44,271l-2.78-90.43,6.19-.93,1.24,7.74,3.1-.31-.31-8h.31l-.31-2.17,6.5-.31V179l6.5-.31,2.17,68.13,20.75-.62V217.73l-2.23-40-.32-3.66-9.53-5.32-8.67-4.65-4.34-2.48-.93-.62-.62-.31-.31-.31-.31-.31-4-2.17L116,159.8l-9-4.65,1.24-25.71.93-15.49.93-15.17,1.55-26.32,59.15.31v51.72h-9V114l-3.1,14.86-5.88-.31.62-6.5-4.34-.31,1.24-22.3-3.1-.31h.31v-.31H145.7l-4.65-.31H133.3v.62l-.31,3.72L132.06,118l-1.24,15.49-.31,7.12-.31.93.62.31.31.31h.31l.93.62,8.36,4.34,16.72,8.36-.62,1.55,7.12,3.41-1.55,3.41,9.93.33" style="fill:#fff"></path><path d="M87.17,266.35h-8v3.41L6.65,271.62,6.34,258.3H7.58L7.27,249l9.29-.62v-1.86l-6.19-2.17,1.86-161L20.9,83l.31-14.25,8.36-.31.93,9.29h.62l.31-12.08H41L37.31,247.14,85,244l.31,8.67,1.55.31v3.72l-8.36.31,8.36,1.86.31,7.44M64.56,212.47H58.68v-126l8.05-1.55,4.34,8.67V87.36l9.6-.31,4.65,128.83L76,216.5l-.93-7.74v11.46H64.57v-7.75" style="fill:#fff"></path><path d="M172.33,164.16V268.83L105.44,271l-2.78-90.43,6.19-.93,1.24,7.74,3.1-.31-.31-8h.31l-.31-2.17,6.5-.31V179l6.5-.31,2.17,68.13,20.75-.62V217.73l-2.23-40-.32-3.66-9.53-5.32-8.67-4.65-4.34-2.48-.93-.62-.62-.31-.31-.31-.31-.31-4-2.17L116,159.8l-9-4.65,1.24-25.71.93-15.49.93-15.17,1.55-26.32,59.15.31v51.72h-9V114l-3.1,14.86-5.88-.31.62-6.5-4.34-.31,1.24-22.3-3.1-.31h.31v-.31H145.7l-4.65-.31H133.3v.62l-.31,3.72L132.06,118l-1.24,15.49-.31,7.12-.31.93.62.31.31.31h.31l.93.62,8.36,4.34,16.72,8.36-.62,1.55,7.12,3.41-1.55,3.41,9.93.33" style="fill:#fff"></path><polyline points="41.03 65.67 31.43 65.67 31.12 77.75 30.5 77.75 29.57 68.46 21.21 68.77 20.9 83.01 12.23 83.33 10.37 244.36 16.56 246.53 16.56 248.39 7.27 249.01 7.58 258.3 6.34 258.3 6.65 271.62 79.12 269.76 79.12 266.35 87.17 266.35 86.86 258.92 78.5 257.06 86.86 256.75 86.86 253.03 85.31 252.72 85 244.05 37.31 247.15 41.03 65.67" style="fill:#fff"></polyline><polyline points="66.73 84.88 58.68 86.43 58.68 212.47 64.56 212.47 64.56 220.21 75.09 220.21 75.09 208.75 76.02 216.49 85.31 215.88 80.67 87.05 71.07 87.35 71.07 93.55 66.73 84.88" style="fill:#fff"></polyline><path d="M111.63,72.49l-1.55,26.32L109.15,114l-.93,15.49L107,155.18l9,4.65,1.55-1.86,4,2.17.31.31.31.31.62.31.93.62,4.34,2.48,8.67,4.65,9.53,5.32.32,3.66,2.23,40v28.49l-20.75.62-2.17-68.13-6.5.31v-2.48l-6.5.31.31,2.17h-.31l.31,8-3.1.31-1.24-7.74-6.19.93L105.43,271l66.89-2.17V164.16l-9.91-.31,1.55-3.41L156.84,157l.62-1.55-16.72-8.36-8.36-4.34-.93-.62h-.31l-.31-.31-.62-.31.31-.93.31-7.12L132.07,118l.93-15.17.31-3.72v-.62h7.75l4.65.31h1.86v.31h-.31l3.1.31-1.24,22.3,4.34.31-.62,6.5,5.88.31,3.1-14.86v10.53h9V72.8l-59.17-.31" style="fill:#fff"></path><path d="M268.65,73.68l-29.73,1.55-3.72.31h-.93l-.62.31h-5l-7.74.31-31.59,1.55L190,91l12.7-.62L203,93.2l-9.6.31.31,13h2.17l-.62,77.11L195,227.49v32.73L194.64,281l17-1.55,13.93-1.24,17-1.55-.31-3.41,22.92-1.55-.93-7.74-22.92.31,23.54-2.17-.31-3.71h-4l-.93-8.67-26.94,2.48-13,1.55h-.31v-25.3l-.31-42.62-.31-80.21,5.57-.31,7.43-.31,4-.31h1.55c.93,0,1.86.31,2.79.31h0c-.31.93-.31,1.86-.62,2.48v7.43l-.62,24.47-.62,51.29,7.43.31v6.5l13.32.31v-2.48L269,195l-1.55-51.6-.62-24.77v-6.19l-.31-7.74-.31-21.37,2.48-1.86V73.68" style="fill:#fff"></path><path d="M311.38,102.18H324.7l9.91-.31,1.24,70.91h.62l-1.55,44.9L334,238v8.67l-.31,1.24v1.24h0a1.08,1.08,0,0,1-.62-.31H331.2l-13.63.93-6.5.62-.62-8h1.86l-.62-74.54V129.73l-.31-21v-6.51m42.74-26.64-27.87.93-13.63.31-26,.62.31,18.27V109h.62l-3.1,149.78,5.57.31.31,2.48-3.41.31.93,10.53,19.51-1.55v.31L287.53,274l.93,5.26L308,276.42l.31,1.55,19.51-1.86,4.95-.31,7.43-.62,19.51-1.86V253.81l.31-7.74V223.25l.31-39.64.62-81.43h-5l.62-4.65,5.57.31,1.24-10.53h-2.17v-3.1l-6.81.31V82.66l7.13-.31-.31-5.26-7.12.31V75.54" style="fill:#fff"></path><path d="M238.13,212.29h0a11.85,11.85,0,0,0,1.88-2c0-.31-.06-1.49,0-1.8-3.4-1-5.11-1.48-8.54-2.3l-1.73-.39c.32-5.15.59-11.73.59-19.16,0-17-1.06-36.85-1.06-36.85-1.1-.23-15.19,20.22-18.82,28.23-.53-3.12-10.59-27.35-11.18-28.64a16,16,0,0,0-1.16-2.29l-.7,1.54c0,.11-8.58,26.41-11.87,31.85-1.79-3.73-12-24.28-17.3-28.62,0,0-6.46,26.12-8.69,31.88,0,0-11.3-20.62-20.58-26.23.13.47,3.3,26,3.81,38.53.38,9.4.32,16.18.27,19l-1.41.6s-2.9,2.1-2.47,3.29l.77,2.1.39,1.07.2.54.05.13s0,0,0,0l.06,0,.22-.1c1.2-.53.64-.17,1.89-.7l1.37-.57.74,3.17.62,0,2.88-1.47a3.76,3.76,0,0,0,.23-.83c-.06-.25.09-1.67.16-2.79,1.34-.57,2.76-1.16,3.18-1.32,3.12-1.14,6.38-2.27,9.64-3.32A158.09,158.09,0,0,1,180.42,210a112.28,112.28,0,0,1,13.16-1.65l2.21,0c2.29-.21,4.43-.16,7.57-.14,1.64.08.18.18.18.18l7.18.55-.45-.11c4.28.33,6.6,1.29,11.43,2.2l0,0c.57.1,1.51.29,2.59.53,0,1.43,0,2.62-.09,3.62a5.84,5.84,0,0,0,.29,1.15s2.46,2.19,2.91,2.62,1.3-1.59,1.3-1.59c.08-.41.28-2.08.52-4.71l2.86.62c2.61.33.22-.17,2.39.08a42.85,42.85,0,0,0,5.5.51,51,51,0,0,1-5.24-.66,7.53,7.53,0,0,0,1.92.13,10.91,10.91,0,0,1,2,.12l.24.22c.69.07,1.7.12,2.55.14a14.48,14.48,0,0,0,1.76,0C242.72,213.8,239.46,212.34,238.13,212.29Zm-17.85-8.48c-2.55-.49-5.21-1-7.53-1.42,1.21.07-1.46-.33-1.46-.33s-2.1-.18-3-.23a16.56,16.56,0,0,1,2.78.45,100.29,100.29,0,0,0-19.29-.05c-3.7.35-5,.18-5.88.29l.18.12s-6.21.71-9,1.35c-1.71.4-5.45,1.21-10.09,2.51s-10.21,3.12-15.69,5.12c-.49.18-1.47.58-2.58,1,0-5.33,0-13.48-.47-20.3-.91-13.27-1.81-19.56-1.81-19.56l14.2,23.76c5.34-11.5,9.95-31.94,9.95-31.94s11.71,20.53,15.43,29.21c1.51-3.32,12.12-30.38,12.12-30.38,2,2.45,10.83,24.93,11.7,27.5C212.6,184.6,224,167,224,167s.34,10.5.34,23.8v13.87C222.71,204.3,221.22,204,220.28,203.81Z" style="fill:url(#ae)"></path><path d="M238.13,212.29h0a11.85,11.85,0,0,0,1.88-2c0-.31-.06-1.49,0-1.8-3.4-1-5.11-1.48-8.54-2.3l-1.73-.39c.32-5.15.59-11.73.59-19.16,0-17-1.06-36.85-1.06-36.85-1.1-.23-15.19,20.22-18.82,28.23-.53-3.12-10.59-27.35-11.18-28.64a16,16,0,0,0-1.16-2.29l-.7,1.54c0,.11-8.58,26.41-11.87,31.85-1.79-3.73-12-24.28-17.3-28.62,0,0-6.46,26.12-8.69,31.88,0,0-11.3-20.62-20.58-26.23.13.47,3.3,26,3.81,38.53.38,9.4.32,16.18.27,19l-1.41.6s-2.9,2.1-2.47,3.29l.77,2.1.39,1.07.2.54.05.13s0,0,0,0l.06,0,.22-.1c1.2-.53.64-.17,1.89-.7l1.37-.57.74,3.17.62,0,2.88-1.47a3.76,3.76,0,0,0,.23-.83c-.06-.25.09-1.67.16-2.79,1.34-.57,2.76-1.16,3.18-1.32,3.12-1.14,6.38-2.27,9.64-3.32A158.09,158.09,0,0,1,180.42,210a112.28,112.28,0,0,1,13.16-1.65l2.21,0c2.29-.21,4.43-.16,7.57-.14,1.64.08.18.18.18.18l7.18.55-.45-.11c4.28.33,6.6,1.29,11.43,2.2l0,0c.57.1,1.51.29,2.59.53,0,1.43,0,2.62-.09,3.62a5.84,5.84,0,0,0,.29,1.15s2.46,2.19,2.91,2.62,1.3-1.59,1.3-1.59c.08-.41.28-2.08.52-4.71l2.86.62c2.61.33.22-.17,2.39.08a42.85,42.85,0,0,0,5.5.51,51,51,0,0,1-5.24-.66,7.53,7.53,0,0,0,1.92.13,10.91,10.91,0,0,1,2,.12l.24.22c.69.07,1.7.12,2.55.14a14.48,14.48,0,0,0,1.76,0C242.72,213.8,239.46,212.34,238.13,212.29Zm-17.85-8.48c-2.55-.49-5.21-1-7.53-1.42,1.21.07-1.46-.33-1.46-.33s-2.1-.18-3-.23a16.56,16.56,0,0,1,2.78.45,100.29,100.29,0,0,0-19.29-.05c-3.7.35-5,.18-5.88.29l.18.12s-6.21.71-9,1.35c-1.71.4-5.45,1.21-10.09,2.51s-10.21,3.12-15.69,5.12c-.49.18-1.47.58-2.58,1,0-5.33,0-13.48-.47-20.3-.91-13.27-1.81-19.56-1.81-19.56l14.2,23.76c5.34-11.5,9.95-31.94,9.95-31.94s11.71,20.53,15.43,29.21c1.51-3.32,12.12-30.38,12.12-30.38,2,2.45,10.83,24.93,11.7,27.5C212.6,184.6,224,167,224,167s.34,10.5.34,23.8v13.87C222.71,204.3,221.22,204,220.28,203.81Z" style="fill:#efdbb2"></path></svg>