<?xml version="1.0" encoding="UTF-8"?>
<svg width="70px" height="70px" viewBox="0 0 70 70" version="1.1" xmlns="http://www.w3.org/2000/svg" xmlns:xlink="http://www.w3.org/1999/xlink">
    <!-- Generator: sketchtool 61.2 (101010) - https://sketch.com -->
    <title>D8799854-D8B7-4256-8C87-C29747453C6E</title>
    <desc>Created with sketchtool.</desc>
    <g id="New-flyhub" stroke="none" stroke-width="1" fill="none" fill-rule="evenodd">
        <g id="01.-Flyhub-Website-V1.0" transform="translate(-638.000000, -3371.000000)">
            <g id="06-Why-flyhub?" transform="translate(0.000000, 3078.000000)">
                <g id="Group-23" transform="translate(260.000000, 269.000000)">
                    <g id="3" transform="translate(285.000000, 0.000000)">
                        <g id="Group-22" transform="translate(93.000000, 24.000000)">
                            <circle id="Oval" fill="#FFFFFF" cx="35" cy="35" r="35"></circle>
                            <g id="search" transform="translate(20.000000, 20.000000)" fill="#0077d7" fill-rule="nonzero">
                                <path d="M28.08,23.42 L23.08,20.19 C26.5646136,14.8335819 25.4601714,7.71304534 20.5166898,3.66388046 C15.5732081,-0.385284416 8.37461836,-0.0656926326 3.8094158,4.40562401 C-0.755786752,8.87694065 -1.22487449,16.0673363 2.72070571,21.0938803 C6.66628591,26.1204242 13.7623384,27.3725712 19.19,24 L22.42,29 C22.7389764,29.4919063 23.1580937,29.9110236 23.65,30.23 C25.552621,31.4533107 28.0866892,30.9026209 29.3099999,29 C30.5333107,27.097379 29.9826209,24.5633107 28.08,23.34 L28.08,23.42 Z M12.5,22 C7.80557963,22 4,18.1944204 4,13.5 C4,8.80557963 7.80557963,5 12.5,5 C17.1944204,5 21,8.80557963 21,13.5 C21,15.7543402 20.1044669,17.9163484 18.5104076,19.5104076 C16.9163484,21.1044669 14.7543402,22 12.5,22 Z" id="Shape"></path>
                            </g>
                        </g>
                    </g>
                </g>
            </g>
        </g>
    </g>
</svg>